HIERARCHY
ROOT Hips
{
	OFFSET 0.000000 88.474243 0.000000
	CHANNELS 6 Xposition Yposition Zposition Zrotation Yrotation Xrotation 
	JOINT Hips_Spine
	{
		OFFSET 0.000000 0.000000 0.000000
		CHANNELS 3 Zrotation Yrotation Xrotation
		JOINT Spine
		{
			OFFSET 0.005100 8.711998 -0.691000
			CHANNELS 3 Zrotation Yrotation Xrotation
			JOINT Spine1
			{
				OFFSET -0.009200 8.660301 -1.275000
				CHANNELS 3 Zrotation Yrotation Xrotation
				JOINT Spine2
				{
					OFFSET 0.006300 9.852501 -1.857000
					CHANNELS 3 Zrotation Yrotation Xrotation
					JOINT Spine2_Neck
					{
						OFFSET 0.000000 0.000000 0.000000
						CHANNELS 3 Zrotation Yrotation Xrotation
						JOINT Neck
						{
							OFFSET 0.016300 11.420799 -0.263300
							CHANNELS 3 Zrotation Yrotation Xrotation
							End Site #name: Head
							{
								OFFSET -0.019200 9.262405 2.362500
							}
						}
					}
					JOINT Spine2_LeftShoulder
					{
						OFFSET 0.000000 0.000000 0.000000
						CHANNELS 3 Zrotation Yrotation Xrotation
						JOINT LeftShoulder
						{
							OFFSET 5.616900 6.732201 -0.345700
							CHANNELS 3 Zrotation Yrotation Xrotation
							JOINT LeftArm
							{
								OFFSET 10.664888 -0.183372 -2.440700
								CHANNELS 3 Zrotation Yrotation Xrotation
								JOINT LeftForeArm
								{
									OFFSET 27.459126 0.000000 0.000000
									CHANNELS 3 Zrotation Yrotation Xrotation
									End Site #name: LeftHand
									{
										OFFSET 21.306858 0.000000 0.000000
									}
								}
							}
						}
					}
					JOINT Spine2_RightShoulder
					{
						OFFSET 0.000000 0.000000 0.000000
						CHANNELS 3 Zrotation Yrotation Xrotation
						JOINT RightShoulder
						{
							OFFSET -5.580300 6.737503 -0.344400
							CHANNELS 3 Zrotation Yrotation Xrotation
							JOINT RightArm
							{
								OFFSET -10.679335 -0.188484 -2.383900
								CHANNELS 3 Zrotation Yrotation Xrotation
								JOINT RightForeArm
								{
									OFFSET -27.503529 0.000000 0.000000
									CHANNELS 3 Zrotation Yrotation Xrotation
									End Site #name: RightHand
									{
										OFFSET -21.306808 0.000000 0.000000
									}
								}
							}
						}
					}
				}
			}
		}
	}
	JOINT Hips_LeftUpLeg
	{
		OFFSET 0.000000 0.000000 0.000000
		CHANNELS 3 Zrotation Yrotation Xrotation
		JOINT LeftUpLeg
		{
			OFFSET 6.857700 -6.739601 0.312100
			CHANNELS 3 Zrotation Yrotation Xrotation
			JOINT LeftLeg
			{
				OFFSET -0.367590 -34.731552 -4.572400
				CHANNELS 3 Zrotation Yrotation Xrotation
				End Site #name: LeftFoot
				{
					OFFSET 0.367590 -34.656704 -6.067400
				}
			}
		}
	}
	JOINT Hips_RightUpLeg
	{
		OFFSET 0.000000 0.000000 0.000000
		CHANNELS 3 Zrotation Yrotation Xrotation
		JOINT RightUpLeg
		{
			OFFSET -6.876100 -6.733299 0.301000
			CHANNELS 3 Zrotation Yrotation Xrotation
			JOINT RightLeg
			{
				OFFSET 0.347353 -34.795158 -4.515900
				CHANNELS 3 Zrotation Yrotation Xrotation
				End Site #name: RightFoot
				{
					OFFSET -0.347353 -34.589367 -6.070300
				}
			}
		}
	}
}
MOTION
Frames: 14
Frame Time: 0.041667
0.018971 0.014115 -0.039657 -5.373306 -0.522173 -6.367269 0.000000 -0.000000 0.000000 3.067897 1.587937 19.674918 0.854420 0.947778 2.694120 0.000000 0.000000 0.000000 1.077198 0.667595 1.274173 0.946569 -0.582682 7.456322 0.834283 0.177281 3.240256 -9.952231 -6.422482 1.607279 -58.663535 -2.555512 8.290908 0.496560 -28.696144 -0.275427 1.576243 0.471409 3.327726 8.280515 -5.383045 0.246430 70.004724 5.705221 31.282884 -0.237853 20.472577 0.759911 0.000000 0.000000 0.000000 8.388260 8.261304 -68.571036 5.511605 -5.939617 64.731726 0.000000 0.000000 0.000000 -3.461453 -9.275076 -56.924357 -1.351277 -1.255942 65.206127 
0.028474 0.041733 -0.117131 -6.031076 0.158094 -5.343928 0.000000 -0.000000 0.000000 3.176159 0.406685 17.590820 0.758204 0.398926 2.798476 0.000000 0.000000 0.000000 0.837174 0.419038 2.338562 0.876605 -1.204850 6.635444 0.881310 0.450394 3.010310 -7.496431 -4.882741 0.653681 -62.663690 -5.681950 3.531645 -0.020072 -30.723082 0.920695 0.559984 0.331008 3.038693 8.074542 -4.758506 0.234587 71.635459 10.292084 23.604867 -0.090060 26.454855 0.444842 0.000000 0.000000 -0.000000 8.078943 9.069970 -69.611001 5.625205 -5.244829 64.228326 0.000000 0.000000 0.000000 -2.057487 -9.349848 -60.705066 -0.435983 -0.665830 65.727541 
0.022765 0.028868 -0.171738 -6.031311 0.999345 -4.997926 0.000000 -0.000000 0.000000 3.965619 0.447107 19.086734 0.624048 0.426596 2.784513 0.000000 0.000000 0.000000 0.745980 0.210432 2.313321 1.475897 -0.812458 7.197624 0.748265 0.412542 2.819746 -7.675057 -4.810217 0.351856 -61.252800 -3.216774 4.182961 0.019065 -29.487907 0.689407 0.560128 0.387569 2.998550 7.416294 -4.545739 0.181550 70.814974 13.901749 23.635468 -0.057082 31.380860 0.119838 0.000000 0.000000 -0.000000 8.285479 8.664124 -69.862723 5.305493 -5.245540 62.993638 0.000000 0.000000 0.000000 -2.300501 -8.700805 -61.608576 -0.441123 -0.788471 66.775940 
0.019515 0.014930 -0.225236 -6.226643 1.373878 -5.028171 0.000000 -0.000000 0.000000 4.201631 0.964288 19.584319 0.565038 0.366316 3.235051 0.000000 0.000000 0.000000 0.822121 0.234185 2.388492 1.369543 -0.607069 7.746363 0.738481 0.307151 2.920691 -6.129981 -3.863158 0.145400 -62.255066 -4.458499 1.538174 0.025476 -28.885125 0.637032 0.648832 0.396530 3.261464 7.436953 -4.890118 0.177095 72.104793 16.302574 22.452986 -0.110966 36.791021 -0.103013 -0.000000 0.000000 -0.000000 8.235028 8.660313 -69.215368 5.047500 -5.221809 61.812199 0.000000 0.000000 0.000000 -2.157372 -8.715388 -61.978823 -0.200349 -0.768323 67.411392 
0.026184 0.007139 -0.274465 -6.375841 1.572296 -5.164981 0.000000 -0.000000 0.000000 4.304839 1.179241 20.254601 0.543025 0.333783 3.525569 0.000000 0.000000 0.000000 0.818999 0.243975 2.528091 1.295311 -0.617942 8.361671 0.716701 0.222880 2.998119 -5.692246 -3.580805 0.141310 -62.889589 -5.926051 -0.122508 0.053935 -29.613743 0.623388 0.649335 0.393905 3.546607 7.830921 -5.109136 0.130105 72.667432 17.860977 21.433551 -0.183077 40.896512 -0.238888 -0.000000 0.000000 -0.000000 8.209070 8.740247 -68.822845 4.850065 -5.110749 61.163908 0.000000 0.000000 0.000000 -2.163697 -8.712291 -62.104112 0.001820 -0.756616 67.765699 
0.038881 0.004048 -0.319773 -6.458969 1.575297 -5.276178 0.000000 -0.000000 0.000000 4.336420 1.111534 20.724266 0.559393 0.288013 3.616111 0.000000 0.000000 0.000000 0.813813 0.219780 2.657666 1.284703 -0.677708 8.704414 0.719742 0.163579 3.081821 -5.297840 -3.189314 0.060774 -63.241297 -6.883877 -0.298865 0.071597 -30.470898 0.589955 0.644033 0.361526 3.685262 8.223134 -5.040389 0.126825 72.658136 18.838245 20.482976 -0.230651 42.766155 -0.301770 -0.000000 0.000000 -0.000000 8.253259 8.926606 -68.655251 4.783401 -5.073814 61.106972 0.000000 0.000000 -0.000000 -2.262992 -8.659860 -62.057119 0.096339 -0.767341 67.999132 
0.054697 0.004478 -0.361948 -6.487201 1.508911 -5.327683 0.000000 -0.000000 0.000000 4.342820 0.994169 20.972533 0.579241 0.251474 3.632705 0.000000 0.000000 0.000000 0.819886 0.196413 2.713917 1.309882 -0.735806 8.843105 0.731052 0.137025 3.114823 -4.898090 -2.682018 -0.057551 -63.343717 -7.564723 0.367987 0.082659 -31.234481 0.591439 0.655213 0.335926 3.697898 8.504412 -4.813167 0.163367 72.492930 19.045917 20.030628 -0.243977 43.110171 -0.303725 -0.000000 0.000000 -0.000000 8.307081 9.035839 -68.661856 4.748148 -5.084110 61.322847 0.000000 0.000000 -0.000000 -2.348270 -8.625123 -61.934778 0.141182 -0.759947 68.031498 
0.069830 0.006167 -0.402105 -6.489495 1.467218 -5.334344 0.000000 -0.000000 0.000000 4.323497 0.961716 20.991661 0.578488 0.235482 3.631107 0.000000 0.000000 0.000000 0.826745 0.184230 2.754984 1.317778 -0.759081 8.975111 0.739649 0.137202 3.153446 -4.703813 -2.409948 -0.106183 -63.275669 -7.948402 1.365909 0.075599 -32.143434 0.608749 0.658531 0.334219 3.682005 8.599687 -4.576191 0.222377 72.320640 19.035403 19.568208 -0.234428 42.942773 -0.284878 -0.000000 0.000000 -0.000000 8.333509 9.037153 -68.779780 4.686705 -5.126285 61.617185 0.000000 0.000000 -0.000000 -2.404831 -8.597343 -61.826592 0.140106 -0.755250 67.975662 
0.079964 0.008025 -0.441244 -6.493019 1.455321 -5.305248 0.000000 -0.000000 0.000000 4.290578 0.939393 20.953971 0.572455 0.242661 3.630928 0.000000 0.000000 0.000000 0.829275 0.183017 2.791643 1.306710 -0.786333 9.094006 0.739814 0.154502 3.185207 -4.537336 -2.151239 -0.155870 -63.158280 -7.909546 2.306914 0.056981 -33.012853 0.632069 0.651343 0.339376 3.670776 8.560568 -4.412626 0.276647 72.259218 18.899469 19.186258 -0.229024 42.982668 -0.258510 -0.000000 0.000000 -0.000000 8.345661 9.013747 -68.914321 4.611638 -5.184642 61.860088 0.000000 0.000000 -0.000000 -2.430808 -8.583266 -61.792406 0.133286 -0.749517 67.931356 
0.085984 0.009663 -0.479599 -6.495502 1.463565 -5.273870 0.000000 -0.000000 0.000000 4.288048 0.927290 20.976121 0.559807 0.257348 3.628995 0.000000 0.000000 0.000000 0.820512 0.189105 2.787369 1.278721 -0.802745 9.158116 0.728960 0.172011 3.185020 -4.432991 -1.875195 -0.219137 -63.063067 -7.731148 3.071807 0.042246 -33.807946 0.656958 0.637612 0.344823 3.650734 8.464673 -4.374283 0.313038 72.275704 18.657774 18.734835 -0.232931 43.431924 -0.237309 -0.000000 0.000000 -0.000000 8.350680 8.982131 -69.020340 4.537413 -5.242711 62.005552 0.000000 0.000000 -0.000000 -2.431589 -8.577974 -61.818123 0.122391 -0.741918 67.932630 
0.088427 0.011445 -0.517468 -6.500994 1.481284 -5.250427 0.000000 -0.000000 0.000000 4.302150 0.886865 21.053460 0.536970 0.272025 3.608926 0.000000 0.000000 0.000000 0.801375 0.193633 2.754406 1.253002 -0.810987 9.199333 0.707691 0.185473 3.158590 -4.351281 -1.576217 -0.288455 -63.062219 -7.491604 3.600907 0.030831 -34.459728 0.673526 0.612248 0.349218 3.620656 8.323129 -4.423940 0.323049 72.347239 18.400120 18.204497 -0.242524 44.327422 -0.220503 -0.000000 0.000000 -0.000000 8.353519 8.956357 -69.106352 4.474001 -5.296305 62.094612 0.000000 0.000000 -0.000000 -2.426483 -8.577169 -61.875827 0.106789 -0.738763 67.967924 
0.087917 0.013613 -0.555028 -6.505399 1.505130 -5.237407 0.000000 -0.000000 0.000000 4.325186 0.824363 21.190307 0.504844 0.285562 3.581118 0.000000 0.000000 0.000000 0.775503 0.198271 2.710025 1.235448 -0.819005 9.227466 0.679538 0.194124 3.116009 -4.269504 -1.274296 -0.354779 -63.145013 -7.318487 4.004921 0.021294 -34.953283 0.690087 0.583827 0.349996 3.587110 8.178030 -4.548562 0.316807 72.456333 18.161272 17.543194 -0.258001 45.696919 -0.203937 -0.000000 0.000000 -0.000000 8.354698 8.936373 -69.169886 4.426019 -5.334227 62.148959 0.000000 0.000000 -0.000000 -2.413623 -8.578319 -61.940826 0.098520 -0.733187 68.020521 
0.085074 0.016183 -0.592501 -6.508145 1.526776 -5.234908 0.000000 -0.000000 0.000000 4.357935 0.757465 21.362119 0.468796 0.296006 3.550392 0.000000 0.000000 0.000000 0.747241 0.200418 2.660203 1.225342 -0.831865 9.276183 0.650796 0.197292 3.069806 -4.186594 -0.983871 -0.414652 -63.265352 -7.229123 4.373509 0.016478 -35.318108 0.703811 0.551276 0.350390 3.552387 8.022999 -4.718157 0.305072 72.583699 17.951841 16.765706 -0.270730 47.661363 -0.179436 -0.000000 0.000000 -0.000000 8.356032 8.923817 -69.229497 4.386567 -5.363874 62.206317 0.000000 0.000000 -0.000000 -2.406978 -8.582616 -61.993360 0.090436 -0.730363 68.071599 
0.080448 0.019105 -0.630038 -6.510904 1.547613 -5.240713 0.000000 -0.000000 0.000000 4.386792 0.684908 21.534448 0.432744 0.303463 3.515817 0.000000 0.000000 0.000000 0.718458 0.200286 2.610763 1.223183 -0.849709 9.351362 0.622726 0.199083 3.023467 -4.101097 -0.700894 -0.467253 -63.417037 -7.133097 4.766780 0.011591 -35.617179 0.717344 0.515919 0.351530 3.519318 7.844692 -4.872514 0.297665 72.770525 17.723355 15.910720 -0.274322 50.314148 -0.148046 -0.000000 0.000000 -0.000000 8.355856 8.916034 -69.267699 4.356193 -5.390316 62.251295 0.000000 0.000000 -0.000000 -2.398049 -8.589540 -62.040901 0.088518 -0.726733 68.119585 
